{
	"asset":{
		"generator":"Khronos glTF Blender I/O v4.3.47",
		"version":"2.0"
	},
	"scene":0,
	"scenes":[
		{
			"name":"Scene",
			"nodes":[
				85
			]
		}
	],
	"nodes":[
		{
			"name":"Head",
			"rotation":[
				-0.13207007944583893,
				0,
				0,
				0.991240382194519
			],
			"translation":[
				0,
				0.08285234868526459,
				9.313225746154785e-09
			]
		},
		{
			"children":[
				0
			],
			"name":"neck_01",
			"rotation":[
				0.25725916028022766,
				0,
				0,
				0.9663424491882324
			],
			"translation":[
				0,
				0.21509313583374023,
				1.862645149230957e-08
			]
		},
		{
			"name":"index_04_leaf_l",
			"rotation":[
				-4.656613761255812e-09,
				-1,
				-1.8664633572962157e-15,
				3.651776296464959e-06
			],
			"scale":[
				1,
				0.9999997019767761,
				1
			],
			"translation":[
				1.9281287677586079e-10,
				0.02411014772951603,
				1.6830044557991641e-07
			]
		},
		{
			"children":[
				2
			],
			"name":"index_03_l",
			"rotation":[
				-1.348770428677426e-09,
				3.689715200039245e-12,
				-0.00018570991232991219,
				1
			],
			"translation":[
				-1.6689227777533233e-09,
				0.027911463752388954,
				1.6598225727193494e-07
			]
		},
		{
			"children":[
				3
			],
			"name":"index_02_l",
			"rotation":[
				-1.721623910100334e-08,
				-3.9419649766614384e-08,
				-0.0005329284467734396,
				0.9999998807907104
			],
			"translation":[
				-3.374225343577564e-10,
				0.0326123908162117,
				1.3817563626616902e-07
			]
		},
		{
			"children":[
				4
			],
			"name":"index_01_l",
			"rotation":[
				-0.009757923893630505,
				0.7070369124412537,
				-0.0097578726708889,
				0.7070420384407043
			],
			"scale":[
				1,
				1.0000001192092896,
				1
			],
			"translation":[
				0.009400011971592903,
				0.11500009149312973,
				0.03249999135732651
			]
		},
		{
			"name":"middle_04_leaf_l",
			"rotation":[
				2.421438694000244e-08,
				-1,
				-9.97962698806934e-14,
				3.65177675121231e-06
			],
			"translation":[
				5.168658390175551e-09,
				0.030519818887114525,
				2.3142732175074343e-08
			]
		},
		{
			"children":[
				6
			],
			"name":"middle_03_l",
			"rotation":[
				-1.0311108411542591e-08,
				2.617175920427428e-11,
				-0.001419748761691153,
				0.9999989867210388
			],
			"scale":[
				0.9999999403953552,
				1,
				1
			],
			"translation":[
				3.3051037462428212e-09,
				0.03011666052043438,
				1.2451241104827204e-07
			]
		},
		{
			"children":[
				7
			],
			"name":"middle_02_l",
			"rotation":[
				1.5643285777855453e-08,
				-3.913748614081669e-08,
				0.0020527271553874016,
				0.9999979138374329
			],
			"scale":[
				0.9999999403953552,
				0.9999999403953552,
				0.9999999403953552
			],
			"translation":[
				1.090484147425741e-09,
				0.03752619028091431,
				1.5301162648029276e-07
			]
		},
		{
			"children":[
				8
			],
			"name":"middle_01_l",
			"rotation":[
				-0.013192507438361645,
				0.7069811820983887,
				-0.013192412443459034,
				0.7069862484931946
			],
			"scale":[
				0.9999999403953552,
				0.9999998807907104,
				0.9999999403953552
			],
			"translation":[
				0.0069999718107283115,
				0.11260004341602325,
				0.0069999960251152515
			]
		},
		{
			"name":"pinky_04_leaf_l",
			"rotation":[
				-2.2351745343485163e-08,
				-1,
				1.2562023090582214e-13,
				3.651776296464959e-06
			],
			"scale":[
				0.9999999403953552,
				0.9999999403953552,
				1
			],
			"translation":[
				1.033640728564933e-08,
				0.021523205563426018,
				-2.814113031490706e-07
			]
		},
		{
			"children":[
				10
			],
			"name":"pinky_03_l",
			"rotation":[
				3.383408886392658e-09,
				-9.627411715062983e-12,
				0.0004658793332055211,
				0.9999998807907104
			],
			"scale":[
				0.9999999403953552,
				0.9999999403953552,
				1
			],
			"translation":[
				2.8849171940237284e-09,
				0.02743077464401722,
				-3.729670083885139e-08
			]
		},
		{
			"children":[
				11
			],
			"name":"pinky_02_l",
			"rotation":[
				-1.035459185061427e-08,
				-3.897551081877282e-08,
				-0.0015674028545618057,
				0.9999988079071045
			],
			"translation":[
				-1.0922121873591095e-08,
				0.031630996614694595,
				7.067205842758995e-08
			]
		},
		{
			"children":[
				12
			],
			"name":"pinky_01_l",
			"rotation":[
				-0.015652360394597054,
				0.706930935382843,
				-0.01565224677324295,
				0.7069361209869385
			],
			"translation":[
				0.009000067599117756,
				0.0951000526547432,
				-0.042500000447034836
			]
		},
		{
			"name":"ring_04_leaf_l",
			"rotation":[
				1.1641533959050321e-08,
				-1,
				-4.1919619902033856e-14,
				3.651776296464959e-06
			],
			"scale":[
				1,
				0.9999997019767761,
				1
			],
			"translation":[
				-3.835339157376438e-09,
				0.029101530089974403,
				3.391749459069615e-08
			]
		},
		{
			"children":[
				14
			],
			"name":"ring_03_l",
			"rotation":[
				-2.4604773329883756e-08,
				6.235185284753086e-11,
				-0.003387601813301444,
				0.9999942779541016
			],
			"scale":[
				1,
				0.9999999403953552,
				1
			],
			"translation":[
				-8.026290743146092e-09,
				0.028300149366259575,
				1.1107826480838412e-07
			]
		},
		{
			"children":[
				15
			],
			"name":"ring_02_l",
			"rotation":[
				1.7517091777108362e-08,
				-3.9449915334444086e-08,
				0.0023997032549232244,
				0.9999971389770508
			],
			"translation":[
				-5.185938789509237e-09,
				0.0360012948513031,
				1.464196230926973e-07
			]
		},
		{
			"children":[
				16
			],
			"name":"ring_01_l",
			"rotation":[
				-0.0029462252277880907,
				0.7070980072021484,
				-0.0029462038073688745,
				0.7071032524108887
			],
			"scale":[
				0.9999998807907104,
				0.9999997019767761,
				0.9999998807907104
			],
			"translation":[
				0.00730002298951149,
				0.10620005428791046,
				-0.020400000736117363
			]
		},
		{
			"name":"thumb_04_leaf_l",
			"rotation":[
				2.2672955068969713e-08,
				0.4282083213329315,
				-1.3036950008427084e-07,
				0.9036800265312195
			],
			"scale":[
				0.9999998807907104,
				1,
				1
			],
			"translation":[
				-1.0710209608078003e-07,
				0.03459959849715233,
				6.51925802230835e-09
			]
		},
		{
			"children":[
				18
			],
			"name":"thumb_03_l",
			"rotation":[
				-0.0003726967261172831,
				2.6525931389187463e-05,
				0.00011462579277576879,
				0.9999999403953552
			],
			"scale":[
				1.0000001192092896,
				1,
				1
			],
			"translation":[
				3.5608536563813686e-08,
				0.03922773152589798,
				-5.168840289115906e-08
			]
		},
		{
			"children":[
				19
			],
			"name":"thumb_02_l",
			"rotation":[
				0.0008555729873478413,
				3.4565124224172905e-05,
				-0.0004891895223408937,
				0.9999995231628418
			],
			"scale":[
				1,
				0.9999999403953552,
				1
			],
			"translation":[
				-1.83063093572855e-07,
				0.039565373212099075,
				5.587935447692871e-09
			]
		},
		{
			"children":[
				20
			],
			"name":"thumb_01_l",
			"rotation":[
				0.30099350214004517,
				0.9291350841522217,
				0.21020177006721497,
				0.04388770833611488
			],
			"scale":[
				1,
				1.0000001192092896,
				1
			],
			"translation":[
				0.021399976685643196,
				0.027700087055563927,
				0.02740001305937767
			]
		},
		{
			"children":[
				5,
				9,
				13,
				17,
				21
			],
			"name":"hand_l",
			"rotation":[
				-0.015807554125785828,
				-1.1323515991534805e-06,
				-1.859292275696589e-08,
				0.9998750686645508
			],
			"scale":[
				1,
				1,
				0.9999999403953552
			],
			"translation":[
				8.156474962106586e-08,
				0.24042010307312012,
				-3.2514435588382185e-09
			]
		},
		{
			"children":[
				22
			],
			"name":"lowerarm_l",
			"rotation":[
				0.03093818761408329,
				4.2500738345552236e-05,
				-1.2440405043889768e-06,
				0.9995213150978088
			],
			"translation":[
				-4.025901034765411e-08,
				0.25111493468284607,
				-8.731149137020111e-11
			]
		},
		{
			"children":[
				23
			],
			"name":"upperarm_l",
			"rotation":[
				0.16515187919139862,
				0.6876330971717834,
				-0.16469810903072357,
				0.6875755786895752
			],
			"scale":[
				0.9999999403953552,
				1,
				1
			],
			"translation":[
				-0.009641071781516075,
				0.1883048117160797,
				-0.03967198729515076
			]
		},
		{
			"children":[
				24
			],
			"name":"clavicle_l",
			"rotation":[
				-0.5359424352645874,
				-0.3172530233860016,
				-0.3989512026309967,
				0.673018753528595
			],
			"translation":[
				0.03139999881386757,
				0.1737176477909088,
				0.06732845306396484
			]
		},
		{
			"name":"index_04_leaf_r",
			"rotation":[
				-4.656613761255812e-09,
				1,
				-9.069184307350635e-15,
				3.651776296464959e-06
			],
			"scale":[
				1,
				0.9999997019767761,
				1
			],
			"translation":[
				-1.9281287677586079e-10,
				0.02411014772951603,
				1.6830023241709569e-07
			]
		},
		{
			"children":[
				26
			],
			"name":"index_03_r",
			"rotation":[
				-1.3487808647738575e-09,
				-3.968936290732472e-12,
				0.00018570991232991219,
				1
			],
			"translation":[
				1.6707417671568692e-09,
				0.027911463752388954,
				1.659820298982595e-07
			]
		},
		{
			"children":[
				27
			],
			"name":"index_02_r",
			"rotation":[
				-4.891389959738035e-09,
				3.925104508084587e-08,
				0.0005329284467734396,
				0.9999998807907104
			],
			"translation":[
				-1.2369127944111824e-10,
				0.032612428069114685,
				1.5866616820403578e-07
			]
		},
		{
			"children":[
				28
			],
			"name":"index_01_r",
			"rotation":[
				-0.00975793320685625,
				-0.7070369720458984,
				0.009757863357663155,
				0.7070419788360596
			],
			"scale":[
				1,
				1.0000001192092896,
				1
			],
			"translation":[
				-0.00940000731498003,
				0.11500009149312973,
				0.032499995082616806
			]
		},
		{
			"name":"middle_04_leaf_r",
			"rotation":[
				2.421438694000244e-08,
				1,
				8.419702652098793e-14,
				3.65177675121231e-06
			],
			"translation":[
				-5.168658390175551e-09,
				0.030519818887114525,
				2.3141225824474532e-08
			]
		},
		{
			"children":[
				30
			],
			"name":"middle_03_r",
			"rotation":[
				-1.0311155484998835e-08,
				-2.69988770923435e-11,
				0.001419748761691153,
				0.9999989867210388
			],
			"scale":[
				0.9999999403953552,
				1,
				1
			],
			"translation":[
				-3.306013240944594e-09,
				0.03011666052043438,
				1.2451081943254394e-07
			]
		},
		{
			"children":[
				31
			],
			"name":"middle_02_r",
			"rotation":[
				1.3419549915738571e-08,
				3.920036917293146e-08,
				-0.0020527271553874016,
				0.9999979138374329
			],
			"scale":[
				0.9999999403953552,
				0.9999999403953552,
				0.9999999403953552
			],
			"translation":[
				-1.2823875294998288e-09,
				0.03752618655562401,
				1.4930063230167434e-07
			]
		},
		{
			"children":[
				32
			],
			"name":"middle_01_r",
			"rotation":[
				-0.013192505575716496,
				-0.7069811820983887,
				0.013192412443459034,
				0.7069862484931946
			],
			"scale":[
				0.9999999403953552,
				0.9999998807907104,
				0.9999999403953552
			],
			"translation":[
				-0.006999965291470289,
				0.11260004341602325,
				0.0069999974220991135
			]
		},
		{
			"name":"pinky_04_leaf_r",
			"rotation":[
				-2.2351745343485163e-08,
				1,
				-9.381222605383058e-14,
				3.651776296464959e-06
			],
			"scale":[
				0.9999999403953552,
				0.9999999403953552,
				1
			],
			"translation":[
				-1.0335497790947556e-08,
				0.02152320370078087,
				-2.814119568483875e-07
			]
		},
		{
			"children":[
				34
			],
			"name":"pinky_03_r",
			"rotation":[
				3.383400670742276e-09,
				9.110491007435773e-12,
				-0.0004658793332055211,
				0.9999998807907104
			],
			"scale":[
				0.9999999403953552,
				0.9999999403953552,
				1
			],
			"translation":[
				-2.8858266887255013e-09,
				0.02743077091872692,
				-3.729741138158715e-08
			]
		},
		{
			"children":[
				35
			],
			"name":"pinky_02_r",
			"rotation":[
				1.908002644768203e-09,
				3.8693851678317515e-08,
				0.0015674028545618057,
				0.9999988079071045
			],
			"translation":[
				4.2391548049636185e-09,
				0.03163096681237221,
				9.059564831659372e-08
			]
		},
		{
			"children":[
				36
			],
			"name":"pinky_01_r",
			"rotation":[
				-0.0156523697078228,
				-0.7069309949874878,
				0.015652237460017204,
				0.7069360613822937
			],
			"translation":[
				-0.009000054560601711,
				0.0951000526547432,
				-0.042500000447034836
			]
		},
		{
			"name":"ring_04_leaf_r",
			"rotation":[
				1.1641533959050321e-08,
				1,
				3.932434822109636e-14,
				3.651776296464959e-06
			],
			"scale":[
				1,
				0.9999997019767761,
				1
			],
			"translation":[
				3.835339157376438e-09,
				0.029101528227329254,
				3.391586744783126e-08
			]
		},
		{
			"children":[
				38
			],
			"name":"ring_03_r",
			"rotation":[
				-2.4604839055086813e-08,
				-5.959530785526468e-11,
				0.003387601813301444,
				0.9999942779541016
			],
			"scale":[
				1,
				0.9999999403953552,
				1
			],
			"translation":[
				8.026290743146092e-09,
				0.028300149366259575,
				1.1107695030432296e-07
			]
		},
		{
			"children":[
				39
			],
			"name":"ring_02_r",
			"rotation":[
				1.7020420628455213e-08,
				3.94586443519529e-08,
				-0.0023997037205845118,
				0.9999971389770508
			],
			"translation":[
				6.081791070755571e-09,
				0.0360012948513031,
				1.4559928729340754e-07
			]
		},
		{
			"children":[
				40
			],
			"name":"ring_01_r",
			"rotation":[
				-0.002946224994957447,
				-0.7070980668067932,
				0.002946204040199518,
				0.7071031928062439
			],
			"scale":[
				0.9999998807907104,
				0.9999997019767761,
				0.9999998807907104
			],
			"translation":[
				-0.007300012744963169,
				0.10620005428791046,
				-0.020400000736117363
			]
		},
		{
			"name":"thumb_04_leaf_r",
			"rotation":[
				2.2672949739899195e-08,
				-0.4282083213329315,
				1.8189894035458565e-07,
				0.9036800265312195
			],
			"scale":[
				0.9999999403953552,
				0.9999999403953552,
				1
			],
			"translation":[
				1.671724021434784e-07,
				0.03459971770644188,
				8.381903171539307e-09
			]
		},
		{
			"children":[
				42
			],
			"name":"thumb_03_r",
			"rotation":[
				-0.0003726781578734517,
				-2.651103204698302e-05,
				-0.00011462859401945025,
				0.9999999403953552
			],
			"scale":[
				1.0000001192092896,
				0.9999999403953552,
				0.9999998807907104
			],
			"translation":[
				-1.8476566765457392e-07,
				0.03922785073518753,
				-2.2351741790771484e-08
			]
		},
		{
			"children":[
				43
			],
			"name":"thumb_02_r",
			"rotation":[
				0.000855587946716696,
				-3.4503656934248284e-05,
				0.0004891885910183191,
				0.9999995231628418
			],
			"scale":[
				1,
				0.9999998807907104,
				0.9999998807907104
			],
			"translation":[
				-5.372567102313042e-08,
				0.03956543654203415,
				-2.60770320892334e-08
			]
		},
		{
			"children":[
				44
			],
			"name":"thumb_01_r",
			"rotation":[
				0.30099350214004517,
				-0.9291350841522217,
				-0.21020175516605377,
				0.04388761147856712
			],
			"scale":[
				1,
				1.0000001192092896,
				1
			],
			"translation":[
				-0.02139997109770775,
				0.027700087055563927,
				0.02740001119673252
			]
		},
		{
			"children":[
				29,
				33,
				37,
				41,
				45
			],
			"name":"hand_r",
			"rotation":[
				-0.015807554125785828,
				1.2515496337073273e-06,
				1.8592521300320186e-08,
				0.9998750686645508
			],
			"scale":[
				1,
				1,
				0.9999999403953552
			],
			"translation":[
				-9.193168182264344e-08,
				0.24042010307312012,
				-5.398987923399545e-09
			]
		},
		{
			"children":[
				46
			],
			"name":"lowerarm_r",
			"rotation":[
				0.03093818761408329,
				-4.256031024851836e-05,
				1.2421967312548077e-06,
				0.9995213150978088
			],
			"translation":[
				4.025901034765411e-08,
				0.25111493468284607,
				-8.731149137020111e-11
			]
		},
		{
			"children":[
				47
			],
			"name":"upperarm_r",
			"rotation":[
				0.16515187919139862,
				-0.6876330971717834,
				0.16469810903072357,
				0.6875755786895752
			],
			"scale":[
				0.9999999403953552,
				1,
				1
			],
			"translation":[
				0.009641071781516075,
				0.1883048117160797,
				-0.03967198729515076
			]
		},
		{
			"children":[
				48
			],
			"name":"clavicle_r",
			"rotation":[
				-0.5359424352645874,
				0.3172530233860016,
				0.3989512026309967,
				0.673018753528595
			],
			"translation":[
				-0.03139999881386757,
				0.1737176477909088,
				0.06732845306396484
			]
		},
		{
			"children":[
				1,
				25,
				49
			],
			"name":"spine_03",
			"rotation":[
				-0.12418898940086365,
				0,
				0,
				0.9922585487365723
			],
			"translation":[
				0,
				0.1331336796283722,
				0
			]
		},
		{
			"children":[
				50
			],
			"name":"spine_02",
			"rotation":[
				-0.03958535194396973,
				0,
				0,
				0.9992161989212036
			],
			"translation":[
				0,
				0.10634974390268326,
				-1.3969838619232178e-09
			]
		},
		{
			"children":[
				51
			],
			"name":"spine_01",
			"rotation":[
				-0.09185619652271271,
				0,
				0,
				0.9957723021507263
			],
			"translation":[
				0,
				0.1280922144651413,
				-3.259629011154175e-08
			]
		},
		{
			"name":"ball_leaf_l",
			"rotation":[
				1.4901161193847656e-08,
				-4.371139183945161e-08,
				6.513504428675462e-16,
				1
			],
			"translation":[
				-1.328826715329967e-09,
				0.07889983803033829,
				-2.1363266711205142e-10
			]
		},
		{
			"children":[
				53
			],
			"name":"ball_l",
			"rotation":[
				-1.0066750988357853e-08,
				-0.9731196165084839,
				0.23030038177967072,
				4.2536413502602954e-08
			],
			"scale":[
				1,
				1.000000238418579,
				1
			],
			"translation":[
				0,
				0.15907371044158936,
				-6.51925802230835e-09
			]
		},
		{
			"children":[
				54
			],
			"name":"foot_l",
			"rotation":[
				-0.5721680521965027,
				0,
				0,
				0.8201364278793335
			],
			"translation":[
				0,
				0.4587883949279785,
				5.587935447692871e-09
			]
		},
		{
			"children":[
				55
			],
			"name":"calf_l",
			"rotation":[
				0.05598893761634827,
				0,
				0,
				0.998431384563446
			],
			"translation":[
				-7.450580596923828e-09,
				0.4288000166416168,
				3.1723175197839737e-09
			]
		},
		{
			"children":[
				56
			],
			"name":"thigh_l",
			"rotation":[
				0.9898310303688049,
				0,
				0,
				0.14224845170974731
			],
			"scale":[
				1,
				1,
				1.0000019073486328
			],
			"translation":[
				0.09059999883174896,
				0.023176943883299828,
				0.0004878304898738861
			]
		},
		{
			"name":"ball_leaf_r",
			"rotation":[
				1.4901161193847656e-08,
				-4.371139183945161e-08,
				6.513504428675462e-16,
				1
			],
			"translation":[
				-1.328826715329967e-09,
				0.07889983803033829,
				-1.1364305052552481e-09
			]
		},
		{
			"children":[
				58
			],
			"name":"ball_r",
			"rotation":[
				-1.0066750988357853e-08,
				-0.9731196165084839,
				0.23030038177967072,
				4.2536413502602954e-08
			],
			"scale":[
				1,
				1.000000238418579,
				1
			],
			"translation":[
				0,
				0.15907371044158936,
				-6.51925802230835e-09
			]
		},
		{
			"children":[
				59
			],
			"name":"foot_r",
			"rotation":[
				-0.5721680521965027,
				0,
				0,
				0.8201364278793335
			],
			"translation":[
				0,
				0.4587883949279785,
				5.587935447692871e-09
			]
		},
		{
			"children":[
				60
			],
			"name":"calf_r",
			"rotation":[
				0.05598893761634827,
				0,
				0,
				0.998431384563446
			],
			"translation":[
				7.450580596923828e-09,
				0.4288000166416168,
				3.1723175197839737e-09
			]
		},
		{
			"children":[
				61
			],
			"name":"thigh_r",
			"rotation":[
				0.9898310303688049,
				0,
				0,
				0.14224845170974731
			],
			"scale":[
				1,
				1,
				1.0000019073486328
			],
			"translation":[
				-0.09059999883174896,
				0.023176943883299828,
				0.0004878304898738861
			]
		},
		{
			"children":[
				52,
				57,
				62
			],
			"name":"pelvis",
			"rotation":[
				0.8005710244178772,
				0,
				0,
				0.5992379188537598
			],
			"translation":[
				0,
				0.042999982833862305,
				0.9491000175476074
			]
		},
		{
			"children":[
				63
			],
			"name":"root",
			"rotation":[
				-0.7071067690849304,
				0,
				0,
				0.7071067690849304
			]
		},
		{
			"mesh":0,
			"name":"Male_Noble_Acc_Gorget",
			"skin":0
		},
		{
			"mesh":1,
			"name":"Male_Noble_Acc_Pauldron",
			"skin":0
		},
		{
			"mesh":2,
			"name":"Male_Noble_Acc_Pauldron_Lion",
			"skin":0
		},
		{
			"mesh":3,
			"name":"Male_Noble_Arms",
			"skin":0
		},
		{
			"mesh":4,
			"name":"Male_Noble_Arms_Guards",
			"skin":0
		},
		{
			"mesh":5,
			"name":"Male_Noble_Body",
			"skin":0
		},
		{
			"mesh":6,
			"name":"Male_Noble_Body_Belt",
			"skin":0
		},
		{
			"mesh":7,
			"name":"Male_Noble_Feet",
			"skin":0
		},
		{
			"mesh":8,
			"name":"Male_Noble_Head_Crown",
			"skin":0
		},
		{
			"mesh":9,
			"name":"Male_Noble_Legs",
			"skin":0
		},
		{
			"mesh":10,
			"name":"Male_Peasant_Arms",
			"skin":0
		},
		{
			"mesh":11,
			"name":"Male_Peasant_Body",
			"skin":0
		},
		{
			"mesh":12,
			"name":"Male_Peasant_Feet",
			"skin":0
		},
		{
			"mesh":13,
			"name":"Male_Peasant_Legs",
			"skin":0
		},
		{
			"mesh":14,
			"name":"Male_Wizard_Arms",
			"skin":0
		},
		{
			"mesh":15,
			"name":"Male_Wizard_Body",
			"skin":0
		},
		{
			"mesh":16,
			"name":"Male_Wizard_Body_Belt",
			"skin":0
		},
		{
			"mesh":17,
			"name":"Male_Wizard_Body_BeltOrnament",
			"skin":0
		},
		{
			"mesh":18,
			"name":"Male_Wizard_Feet",
			"skin":0
		},
		{
			"mesh":19,
			"name":"Male_Wizard_Legs",
			"skin":0
		},
		{
			"children":[
				65,
				66,
				67,
				68,
				69,
				70,
				71,
				72,
				73,
				74,
				75,
				76,
				77,
				78,
				79,
				80,
				81,
				82,
				83,
				84,
				64
			],
			"name":"Armature"
		}
	],
	"materials":[
		{
			"doubleSided":true,
			"name":"MI_Noble",
			"normalTexture":{
				"index":0
			},
			"pbrMetallicRoughness":{
				"baseColorTexture":{
					"index":1
				},
				"metallicRoughnessTexture":{
					"index":2
				}
			}
		},
		{
			"doubleSided":true,
			"name":"MI_Peasant",
			"normalTexture":{
				"index":3
			},
			"pbrMetallicRoughness":{
				"baseColorTexture":{
					"index":4
				},
				"metallicRoughnessTexture":{
					"index":5
				}
			}
		},
		{
			"doubleSided":true,
			"name":"MI_Regular_Male",
			"normalTexture":{
				"index":6
			},
			"pbrMetallicRoughness":{
				"baseColorTexture":{
					"index":7
				},
				"metallicFactor":0,
				"metallicRoughnessTexture":{
					"index":8
				}
			}
		},
		{
			"doubleSided":true,
			"name":"MI_Wizard",
			"normalTexture":{
				"index":9
			},
			"pbrMetallicRoughness":{
				"baseColorTexture":{
					"index":10
				},
				"metallicRoughnessTexture":{
					"index":11
				}
			}
		}
	],
	"meshes":[
		{
			"name":"Male_Noble_Acc_Gorget",
			"primitives":[
				{
					"attributes":{
						"POSITION":0,
						"NORMAL":1,
						"TEXCOORD_0":2,
						"COLOR_0":3,
						"COLOR_1":4,
						"JOINTS_0":5,
						"WEIGHTS_0":6
					},
					"indices":7,
					"material":0
				}
			]
		},
		{
			"name":"Male_Noble_Acc_Pauldron",
			"primitives":[
				{
					"attributes":{
						"POSITION":9,
						"NORMAL":10,
						"TEXCOORD_0":11,
						"JOINTS_0":12,
						"WEIGHTS_0":13
					},
					"indices":14,
					"material":0
				}
			]
		},
		{
			"name":"Male_Noble_Acc_Pauldron_Lion",
			"primitives":[
				{
					"attributes":{
						"POSITION":15,
						"NORMAL":16,
						"TEXCOORD_0":17,
						"JOINTS_0":18,
						"WEIGHTS_0":19
					},
					"indices":20,
					"material":0
				}
			]
		},
		{
			"name":"Male_Noble_Arms",
			"primitives":[
				{
					"attributes":{
						"POSITION":21,
						"NORMAL":22,
						"TEXCOORD_0":23,
						"COLOR_0":24,
						"COLOR_1":25,
						"JOINTS_0":26,
						"WEIGHTS_0":27
					},
					"indices":28,
					"material":0
				}
			]
		},
		{
			"name":"Male_Noble_Arms_Guards",
			"primitives":[
				{
					"attributes":{
						"POSITION":29,
						"NORMAL":30,
						"TEXCOORD_0":31,
						"COLOR_0":32,
						"COLOR_1":33,
						"JOINTS_0":34,
						"WEIGHTS_0":35
					},
					"indices":36,
					"material":0
				}
			]
		},
		{
			"name":"Male_Noble_Body",
			"primitives":[
				{
					"attributes":{
						"POSITION":37,
						"NORMAL":38,
						"TEXCOORD_0":39,
						"COLOR_0":40,
						"COLOR_1":41,
						"JOINTS_0":42,
						"WEIGHTS_0":43
					},
					"indices":44,
					"material":0
				}
			]
		},
		{
			"name":"Male_Noble_Body_Belt",
			"primitives":[
				{
					"attributes":{
						"POSITION":45,
						"NORMAL":46,
						"TEXCOORD_0":47,
						"JOINTS_0":48,
						"WEIGHTS_0":49
					},
					"indices":50,
					"material":0
				}
			]
		},
		{
			"name":"Male_Noble_Feet",
			"primitives":[
				{
					"attributes":{
						"POSITION":51,
						"NORMAL":52,
						"TEXCOORD_0":53,
						"COLOR_0":54,
						"COLOR_1":55,
						"JOINTS_0":56,
						"WEIGHTS_0":57
					},
					"indices":58,
					"material":0
				}
			]
		},
		{
			"name":"Male_Noble_Head_Crown",
			"primitives":[
				{
					"attributes":{
						"POSITION":59,
						"NORMAL":60,
						"TEXCOORD_0":61,
						"JOINTS_0":62,
						"WEIGHTS_0":63
					},
					"indices":64,
					"material":0
				}
			]
		},
		{
			"name":"Male_Noble_Legs",
			"primitives":[
				{
					"attributes":{
						"POSITION":65,
						"NORMAL":66,
						"TEXCOORD_0":67,
						"COLOR_0":68,
						"COLOR_1":69,
						"JOINTS_0":70,
						"WEIGHTS_0":71
					},
					"indices":72,
					"material":0
				}
			]
		},
		{
			"name":"Male_Peasant_Arms",
			"primitives":[
				{
					"attributes":{
						"POSITION":73,
						"NORMAL":74,
						"TEXCOORD_0":75,
						"TEXCOORD_1":76,
						"COLOR_0":77,
						"COLOR_1":78,
						"JOINTS_0":79,
						"WEIGHTS_0":80
					},
					"indices":81,
					"material":1
				},
				{
					"attributes":{
						"POSITION":82,
						"NORMAL":83,
						"TEXCOORD_0":84,
						"TEXCOORD_1":85,
						"COLOR_0":86,
						"COLOR_1":87,
						"JOINTS_0":88,
						"WEIGHTS_0":89
					},
					"indices":90,
					"material":2
				}
			]
		},
		{
			"name":"Male_Peasant_Body",
			"primitives":[
				{
					"attributes":{
						"POSITION":91,
						"NORMAL":92,
						"TEXCOORD_0":93,
						"COLOR_0":94,
						"COLOR_1":95,
						"JOINTS_0":96,
						"WEIGHTS_0":97
					},
					"indices":98,
					"material":1
				}
			]
		},
		{
			"name":"Male_Peasant_Feet",
			"primitives":[
				{
					"attributes":{
						"POSITION":99,
						"NORMAL":100,
						"TEXCOORD_0":101,
						"COLOR_0":102,
						"COLOR_1":103,
						"JOINTS_0":104,
						"WEIGHTS_0":105
					},
					"indices":106,
					"material":1
				}
			]
		},
		{
			"name":"Male_Peasant_Legs",
			"primitives":[
				{
					"attributes":{
						"POSITION":107,
						"NORMAL":108,
						"TEXCOORD_0":109,
						"COLOR_0":110,
						"COLOR_1":111,
						"JOINTS_0":112,
						"WEIGHTS_0":113
					},
					"indices":114,
					"material":1
				}
			]
		},
		{
			"name":"Male_Wizard_Arms",
			"primitives":[
				{
					"attributes":{
						"POSITION":115,
						"NORMAL":116,
						"TEXCOORD_0":117,
						"TEXCOORD_1":118,
						"COLOR_0":119,
						"COLOR_1":120,
						"JOINTS_0":121,
						"WEIGHTS_0":122
					},
					"indices":123,
					"material":3
				},
				{
					"attributes":{
						"POSITION":124,
						"NORMAL":125,
						"TEXCOORD_0":126,
						"TEXCOORD_1":127,
						"COLOR_0":128,
						"COLOR_1":129,
						"JOINTS_0":130,
						"WEIGHTS_0":131
					},
					"indices":132,
					"material":2
				}
			]
		},
		{
			"name":"Male_Wizard_Body",
			"primitives":[
				{
					"attributes":{
						"POSITION":133,
						"NORMAL":134,
						"TEXCOORD_0":135,
						"TEXCOORD_1":136,
						"COLOR_0":137,
						"COLOR_1":138,
						"JOINTS_0":139,
						"WEIGHTS_0":140
					},
					"indices":141,
					"material":3
				}
			]
		},
		{
			"name":"Male_Wizard_Body_Belt",
			"primitives":[
				{
					"attributes":{
						"POSITION":142,
						"NORMAL":143,
						"TEXCOORD_0":144,
						"COLOR_0":145,
						"COLOR_1":146,
						"JOINTS_0":147,
						"WEIGHTS_0":148
					},
					"indices":149,
					"material":3
				}
			]
		},
		{
			"name":"Male_Wizard_Body_Belt.001",
			"primitives":[
				{
					"attributes":{
						"POSITION":150,
						"NORMAL":151,
						"TEXCOORD_0":152,
						"COLOR_0":153,
						"COLOR_1":154,
						"JOINTS_0":155,
						"WEIGHTS_0":156
					},
					"indices":157,
					"material":3
				}
			]
		},
		{
			"name":"Male_Wizard_Feet",
			"primitives":[
				{
					"attributes":{
						"POSITION":158,
						"NORMAL":159,
						"TEXCOORD_0":160,
						"TEXCOORD_1":161,
						"COLOR_0":162,
						"COLOR_1":163,
						"JOINTS_0":164,
						"WEIGHTS_0":165
					},
					"indices":166,
					"material":3
				}
			]
		},
		{
			"name":"Male_Wizard_Legs",
			"primitives":[
				{
					"attributes":{
						"POSITION":167,
						"NORMAL":168,
						"TEXCOORD_0":169,
						"TEXCOORD_1":170,
						"COLOR_0":171,
						"COLOR_1":172,
						"JOINTS_0":173,
						"WEIGHTS_0":174
					},
					"indices":175,
					"material":3
				}
			]
		}
	],
	"textures":[
		{
			"sampler":0,
			"source":0
		},
		{
			"sampler":0,
			"source":1
		},
		{
			"sampler":0,
			"source":2
		},
		{
			"sampler":0,
			"source":3
		},
		{
			"sampler":0,
			"source":4
		},
		{
			"sampler":0,
			"source":5
		},
		{
			"sampler":0,
			"source":6
		},
		{
			"sampler":0,
			"source":7
		},
		{
			"sampler":0,
			"source":8
		},
		{
			"sampler":0,
			"source":9
		},
		{
			"sampler":0,
			"source":10
		},
		{
			"sampler":0,
			"source":11
		}
	],
	"images":[
		{
			"mimeType":"image/png",
			"name":"T_Noble_Normal",
			"uri":"T_Noble_Normal.png"
		},
		{
			"mimeType":"image/png",
			"name":"T_Noble_BaseColor",
			"uri":"T_Noble_BaseColor.png"
		},
		{
			"mimeType":"image/png",
			"name":"T_Noble_ORM",
			"uri":"T_Noble_ORM.png"
		},
		{
			"mimeType":"image/png",
			"name":"T_Peasant_Normal",
			"uri":"T_Peasant_Normal.png"
		},
		{
			"mimeType":"image/png",
			"name":"T_Peasant_BaseColor",
			"uri":"T_Peasant_BaseColor.png"
		},
		{
			"mimeType":"image/png",
			"name":"T_Peasant_ORM",
			"uri":"T_Peasant_ORM.png"
		},
		{
			"mimeType":"image/png",
			"name":"T_Regular_Male_Normal",
			"uri":"T_Regular_Male_Normal.png"
		},
		{
			"mimeType":"image/png",
			"name":"T_Regular_Male_Dark_BaseColor",
			"uri":"T_Regular_Male_Dark_BaseColor.png"
		},
		{
			"mimeType":"image/png",
			"name":"T_Regular_Male_Roughness",
			"uri":"T_Regular_Male_Roughness.png"
		},
		{
			"mimeType":"image/png",
			"name":"T_Wizard_Normal",
			"uri":"T_Wizard_Normal.png"
		},
		{
			"mimeType":"image/png",
			"name":"T_Wizard_BaseColor",
			"uri":"T_Wizard_BaseColor.png"
		},
		{
			"mimeType":"image/png",
			"name":"T_Wizard_ORM",
			"uri":"T_Wizard_ORM.png"
		}
	],
	"skins":[
		{
			"inverseBindMatrices":8,
			"joints":[
				64,
				63,
				52,
				51,
				50,
				1,
				0,
				25,
				24,
				23,
				22,
				5,
				4,
				3,
				2,
				9,
				8,
				7,
				6,
				13,
				12,
				11,
				10,
				17,
				16,
				15,
				14,
				21,
				20,
				19,
				18,
				49,
				48,
				47,
				46,
				29,
				28,
				27,
				26,
				33,
				32,
				31,
				30,
				37,
				36,
				35,
				34,
				41,
				40,
				39,
				38,
				45,
				44,
				43,
				42,
				57,
				56,
				55,
				54,
				53,
				62,
				61,
				60,
				59,
				58
			],
			"name":"Armature"
		}
	],
	"accessors":[
		{
			"bufferView":0,
			"componentType":5126,
			"count":855,
			"max":[
				0.15935809910297394,
				1.6190887689590454,
				0.11506310850381851
			],
			"min":[
				-0.15935809910297394,
				1.4297367334365845,
				-0.17319320142269135
			],
			"type":"VEC3"
		},
		{
			"bufferView":1,
			"componentType":5126,
			"count":855,
			"type":"VEC3"
		},
		{
			"bufferView":2,
			"componentType":5126,
			"count":855,
			"type":"VEC2"
		},
		{
			"bufferView":3,
			"componentType":5121,
			"count":855,
			"normalized":true,
			"type":"VEC4"
		},
		{
			"bufferView":4,
			"componentType":5123,
			"count":855,
			"normalized":true,
			"type":"VEC4"
		},
		{
			"bufferView":5,
			"componentType":5121,
			"count":855,
			"type":"VEC4"
		},
		{
			"bufferView":6,
			"componentType":5126,
			"count":855,
			"type":"VEC4"
		},
		{
			"bufferView":7,
			"componentType":5123,
			"count":2664,
			"type":"SCALAR"
		},
		{
			"bufferView":8,
			"componentType":5126,
			"count":65,
			"type":"MAT4"
		},
		{
			"bufferView":9,
			"componentType":5126,
			"count":532,
			"max":[
				0.3684246838092804,
				1.59662926197052,
				0.03641679883003235
			],
			"min":[
				0.10640724003314972,
				1.4436010122299194,
				-0.1733776330947876
			],
			"type":"VEC3"
		},
		{
			"bufferView":10,
			"componentType":5126,
			"count":532,
			"type":"VEC3"
		},
		{
			"bufferView":11,
			"componentType":5126,
			"count":532,
			"type":"VEC2"
		},
		{
			"bufferView":12,
			"componentType":5121,
			"count":532,
			"type":"VEC4"
		},
		{
			"bufferView":13,
			"componentType":5126,
			"count":532,
			"type":"VEC4"
		},
		{
			"bufferView":14,
			"componentType":5123,
			"count":1788,
			"type":"SCALAR"
		},
		{
			"bufferView":15,
			"componentType":5126,
			"count":551,
			"max":[
				0.374120831489563,
				1.6426424980163574,
				0.02565837651491165
			],
			"min":[
				0.1415008306503296,
				1.489719271659851,
				-0.1567179411649704
			],
			"type":"VEC3"
		},
		{
			"bufferView":16,
			"componentType":5126,
			"count":551,
			"type":"VEC3"
		},
		{
			"bufferView":17,
			"componentType":5126,
			"count":551,
			"type":"VEC2"
		},
		{
			"bufferView":18,
			"componentType":5121,
			"count":551,
			"type":"VEC4"
		},
		{
			"bufferView":19,
			"componentType":5126,
			"count":551,
			"type":"VEC4"
		},
		{
			"bufferView":20,
			"componentType":5123,
			"count":2784,
			"type":"SCALAR"
		},
		{
			"bufferView":21,
			"componentType":5126,
			"count":3354,
			"max":[
				0.8994146585464478,
				1.5382080078125,
				0.02675277180969715
			],
			"min":[
				-0.8994146585464478,
				1.360198974609375,
				-0.15680989623069763
			],
			"type":"VEC3"
		},
		{
			"bufferView":22,
			"componentType":5126,
			"count":3354,
			"type":"VEC3"
		},
		{
			"bufferView":23,
			"componentType":5126,
			"count":3354,
			"type":"VEC2"
		},
		{
			"bufferView":24,
			"componentType":5121,
			"count":3354,
			"normalized":true,
			"type":"VEC4"
		},
		{
			"bufferView":25,
			"componentType":5123,
			"count":3354,
			"normalized":true,
			"type":"VEC4"
		},
		{
			"bufferView":26,
			"componentType":5121,
			"count":3354,
			"type":"VEC4"
		},
		{
			"bufferView":27,
			"componentType":5126,
			"count":3354,
			"type":"VEC4"
		},
		{
			"bufferView":28,
			"componentType":5123,
			"count":16200,
			"type":"SCALAR"
		},
		{
			"bufferView":29,
			"componentType":5126,
			"count":642,
			"max":[
				0.7905200719833374,
				1.5074710845947266,
				-0.00012669397983700037
			],
			"min":[
				-0.7905200719833374,
				1.4242080450057983,
				-0.13073624670505524
			],
			"type":"VEC3"
		},
		{
			"bufferView":30,
			"componentType":5126,
			"count":642,
			"type":"VEC3"
		},
		{
			"bufferView":31,
			"componentType":5126,
			"count":642,
			"type":"VEC2"
		},
		{
			"bufferView":32,
			"componentType":5121,
			"count":642,
			"normalized":true,
			"type":"VEC4"
		},
		{
			"bufferView":33,
			"componentType":5123,
			"count":642,
			"normalized":true,
			"type":"VEC4"
		},
		{
			"bufferView":34,
			"componentType":5121,
			"count":642,
			"type":"VEC4"
		},
		{
			"bufferView":35,
			"componentType":5126,
			"count":642,
			"type":"VEC4"
		},
		{
			"bufferView":36,
			"componentType":5123,
			"count":2028,
			"type":"SCALAR"
		},
		{
			"bufferView":37,
			"componentType":5126,
			"count":4531,
			"max":[
				0.29471468925476074,
				1.5830055475234985,
				0.12310498207807541
			],
			"min":[
				-0.29341942071914673,
				0.9149103760719299,
				-0.19815798103809357
			],
			"type":"VEC3"
		},
		{
			"bufferView":38,
			"componentType":5126,
			"count":4531,
			"type":"VEC3"
		},
		{
			"bufferView":39,
			"componentType":5126,
			"count":4531,
			"type":"VEC2"
		},
		{
			"bufferView":40,
			"componentType":5121,
			"count":4531,
			"normalized":true,
			"type":"VEC4"
		},
		{
			"bufferView":41,
			"componentType":5123,
			"count":4531,
			"normalized":true,
			"type":"VEC4"
		},
		{
			"bufferView":42,
			"componentType":5121,
			"count":4531,
			"type":"VEC4"
		},
		{
			"bufferView":43,
			"componentType":5126,
			"count":4531,
			"type":"VEC4"
		},
		{
			"bufferView":44,
			"componentType":5123,
			"count":13812,
			"type":"SCALAR"
		},
		{
			"bufferView":45,
			"componentType":5126,
			"count":1348,
			"max":[
				0.15166635811328888,
				1.1463561058044434,
				0.12117725610733032
			],
			"min":[
				-0.15166635811328888,
				1.0267333984375,
				0.04798462241888046
			],
			"type":"VEC3"
		},
		{
			"bufferView":46,
			"componentType":5126,
			"count":1348,
			"type":"VEC3"
		},
		{
			"bufferView":47,
			"componentType":5126,
			"count":1348,
			"type":"VEC2"
		},
		{
			"bufferView":48,
			"componentType":5121,
			"count":1348,
			"type":"VEC4"
		},
		{
			"bufferView":49,
			"componentType":5126,
			"count":1348,
			"type":"VEC4"
		},
		{
			"bufferView":50,
			"componentType":5123,
			"count":5208,
			"type":"SCALAR"
		},
		{
			"bufferView":51,
			"componentType":5126,
			"count":3840,
			"max":[
				0.17540383338928223,
				0.4559260904788971,
				0.16754150390625
			],
			"min":[
				-0.17540383338928223,
				-0.003967243246734142,
				-0.17745386064052582
			],
			"type":"VEC3"
		},
		{
			"bufferView":52,
			"componentType":5126,
			"count":3840,
			"type":"VEC3"
		},
		{
			"bufferView":53,
			"componentType":5126,
			"count":3840,
			"type":"VEC2"
		},
		{
			"bufferView":54,
			"componentType":5121,
			"count":3840,
			"normalized":true,
			"type":"VEC4"
		},
		{
			"bufferView":55,
			"componentType":5123,
			"count":3840,
			"normalized":true,
			"type":"VEC4"
		},
		{
			"bufferView":56,
			"componentType":5121,
			"count":3840,
			"type":"VEC4"
		},
		{
			"bufferView":57,
			"componentType":5126,
			"count":3840,
			"type":"VEC4"
		},
		{
			"bufferView":58,
			"componentType":5123,
			"count":11319,
			"type":"SCALAR"
		},
		{
			"bufferView":59,
			"componentType":5126,
			"count":3980,
			"max":[
				0.12386174499988556,
				1.890299677848816,
				0.1243237853050232
			],
			"min":[
				-0.12386174499988556,
				1.7641807794570923,
				-0.12339968234300613
			],
			"type":"VEC3"
		},
		{
			"bufferView":60,
			"componentType":5126,
			"count":3980,
			"type":"VEC3"
		},
		{
			"bufferView":61,
			"componentType":5126,
			"count":3980,
			"type":"VEC2"
		},
		{
			"bufferView":62,
			"componentType":5121,
			"count":3980,
			"type":"VEC4"
		},
		{
			"bufferView":63,
			"componentType":5126,
			"count":3980,
			"type":"VEC4"
		},
		{
			"bufferView":64,
			"componentType":5123,
			"count":11904,
			"type":"SCALAR"
		},
		{
			"bufferView":65,
			"componentType":5126,
			"count":876,
			"max":[
				0.17082679271697998,
				1.0719308853149414,
				0.08022280037403107
			],
			"min":[
				-0.17082679271697998,
				0.332546591758728,
				-0.151111900806427
			],
			"type":"VEC3"
		},
		{
			"bufferView":66,
			"componentType":5126,
			"count":876,
			"type":"VEC3"
		},
		{
			"bufferView":67,
			"componentType":5126,
			"count":876,
			"type":"VEC2"
		},
		{
			"bufferView":68,
			"componentType":5121,
			"count":876,
			"normalized":true,
			"type":"VEC4"
		},
		{
			"bufferView":69,
			"componentType":5123,
			"count":876,
			"normalized":true,
			"type":"VEC4"
		},
		{
			"bufferView":70,
			"componentType":5121,
			"count":876,
			"type":"VEC4"
		},
		{
			"bufferView":71,
			"componentType":5126,
			"count":876,
			"type":"VEC4"
		},
		{
			"bufferView":72,
			"componentType":5123,
			"count":4584,
			"type":"SCALAR"
		},
		{
			"bufferView":73,
			"componentType":5126,
			"count":818,
			"max":[
				0.5231516361236572,
				1.530490517616272,
				0.029068101197481155
			],
			"min":[
				-0.5231516361236572,
				1.3801196813583374,
				-0.13984060287475586
			],
			"type":"VEC3"
		},
		{
			"bufferView":74,
			"componentType":5126,
			"count":818,
			"type":"VEC3"
		},
		{
			"bufferView":75,
			"componentType":5126,
			"count":818,
			"type":"VEC2"
		},
		{
			"bufferView":76,
			"componentType":5126,
			"count":818,
			"type":"VEC2"
		},
		{
			"bufferView":77,
			"componentType":5121,
			"count":818,
			"normalized":true,
			"type":"VEC4"
		},
		{
			"bufferView":78,
			"componentType":5123,
			"count":818,
			"normalized":true,
			"type":"VEC4"
		},
		{
			"bufferView":79,
			"componentType":5121,
			"count":818,
			"type":"VEC4"
		},
		{
			"bufferView":80,
			"componentType":5126,
			"count":818,
			"type":"VEC4"
		},
		{
			"bufferView":81,
			"componentType":5123,
			"count":4224,
			"type":"SCALAR"
		},
		{
			"bufferView":82,
			"componentType":5126,
			"count":2497,
			"max":[
				0.8994146585464478,
				1.5050157308578491,
				0.015845440328121185
			],
			"min":[
				-0.8994145393371582,
				1.3667064905166626,
				-0.1302337497472763
			],
			"type":"VEC3"
		},
		{
			"bufferView":83,
			"componentType":5126,
			"count":2497,
			"type":"VEC3"
		},
		{
			"bufferView":84,
			"componentType":5126,
			"count":2497,
			"type":"VEC2"
		},
		{
			"bufferView":85,
			"componentType":5126,
			"count":2497,
			"type":"VEC2"
		},
		{
			"bufferView":86,
			"componentType":5121,
			"count":2497,
			"normalized":true,
			"type":"VEC4"
		},
		{
			"bufferView":87,
			"componentType":5123,
			"count":2497,
			"normalized":true,
			"type":"VEC4"
		},
		{
			"bufferView":88,
			"componentType":5121,
			"count":2497,
			"type":"VEC4"
		},
		{
			"bufferView":89,
			"componentType":5126,
			"count":2497,
			"type":"VEC4"
		},
		{
			"bufferView":90,
			"componentType":5123,
			"count":11790,
			"type":"SCALAR"
		},
		{
			"bufferView":91,
			"componentType":5126,
			"count":3006,
			"max":[
				0.373415470123291,
				1.55865478515625,
				0.1253526359796524
			],
			"min":[
				-0.373415470123291,
				0.9214096069335938,
				-0.18447723984718323
			],
			"type":"VEC3"
		},
		{
			"bufferView":92,
			"componentType":5126,
			"count":3006,
			"type":"VEC3"
		},
		{
			"bufferView":93,
			"componentType":5126,
			"count":3006,
			"type":"VEC2"
		},
		{
			"bufferView":94,
			"componentType":5121,
			"count":3006,
			"normalized":true,
			"type":"VEC4"
		},
		{
			"bufferView":95,
			"componentType":5123,
			"count":3006,
			"normalized":true,
			"type":"VEC4"
		},
		{
			"bufferView":96,
			"componentType":5121,
			"count":3006,
			"type":"VEC4"
		},
		{
			"bufferView":97,
			"componentType":5126,
			"count":3006,
			"type":"VEC4"
		},
		{
			"bufferView":98,
			"componentType":5123,
			"count":11568,
			"type":"SCALAR"
		},
		{
			"bufferView":99,
			"componentType":5126,
			"count":1878,
			"max":[
				0.17531567811965942,
				0.44826358556747437,
				0.16754150390625
			],
			"min":[
				-0.17531567811965942,
				-0.003967255353927612,
				-0.16245567798614502
			],
			"type":"VEC3"
		},
		{
			"bufferView":100,
			"componentType":5126,
			"count":1878,
			"type":"VEC3"
		},
		{
			"bufferView":101,
			"componentType":5126,
			"count":1878,
			"type":"VEC2"
		},
		{
			"bufferView":102,
			"componentType":5121,
			"count":1878,
			"normalized":true,
			"type":"VEC4"
		},
		{
			"bufferView":103,
			"componentType":5123,
			"count":1878,
			"normalized":true,
			"type":"VEC4"
		},
		{
			"bufferView":104,
			"componentType":5121,
			"count":1878,
			"type":"VEC4"
		},
		{
			"bufferView":105,
			"componentType":5126,
			"count":1878,
			"type":"VEC4"
		},
		{
			"bufferView":106,
			"componentType":5123,
			"count":7764,
			"type":"SCALAR"
		},
		{
			"bufferView":107,
			"componentType":5126,
			"count":656,
			"max":[
				0.2114276885986328,
				1.0536993741989136,
				0.07690303027629852
			],
			"min":[
				-0.2114276885986328,
				0.4030444920063019,
				-0.15175504982471466
			],
			"type":"VEC3"
		},
		{
			"bufferView":108,
			"componentType":5126,
			"count":656,
			"type":"VEC3"
		},
		{
			"bufferView":109,
			"componentType":5126,
			"count":656,
			"type":"VEC2"
		},
		{
			"bufferView":110,
			"componentType":5121,
			"count":656,
			"normalized":true,
			"type":"VEC4"
		},
		{
			"bufferView":111,
			"componentType":5123,
			"count":656,
			"normalized":true,
			"type":"VEC4"
		},
		{
			"bufferView":112,
			"componentType":5121,
			"count":656,
			"type":"VEC4"
		},
		{
			"bufferView":113,
			"componentType":5126,
			"count":656,
			"type":"VEC4"
		},
		{
			"bufferView":114,
			"componentType":5123,
			"count":3336,
			"type":"SCALAR"
		},
		{
			"bufferView":115,
			"componentType":5126,
			"count":2068,
			"max":[
				0.828667402267456,
				1.530490517616272,
				0.029068101197481155
			],
			"min":[
				-0.828667402267456,
				1.376556396484375,
				-0.14061014354228973
			],
			"type":"VEC3"
		},
		{
			"bufferView":116,
			"componentType":5126,
			"count":2068,
			"type":"VEC3"
		},
		{
			"bufferView":117,
			"componentType":5126,
			"count":2068,
			"type":"VEC2"
		},
		{
			"bufferView":118,
			"componentType":5126,
			"count":2068,
			"type":"VEC2"
		},
		{
			"bufferView":119,
			"componentType":5121,
			"count":2068,
			"normalized":true,
			"type":"VEC4"
		},
		{
			"bufferView":120,
			"componentType":5123,
			"count":2068,
			"normalized":true,
			"type":"VEC4"
		},
		{
			"bufferView":121,
			"componentType":5121,
			"count":2068,
			"type":"VEC4"
		},
		{
			"bufferView":122,
			"componentType":5126,
			"count":2068,
			"type":"VEC4"
		},
		{
			"bufferView":123,
			"componentType":5123,
			"count":9912,
			"type":"SCALAR"
		},
		{
			"bufferView":124,
			"componentType":5126,
			"count":1332,
			"max":[
				0.8994146585464478,
				1.464561104774475,
				0.015845343470573425
			],
			"min":[
				-0.8994146585464478,
				1.3667066097259521,
				-0.12017256766557693
			],
			"type":"VEC3"
		},
		{
			"bufferView":125,
			"componentType":5126,
			"count":1332,
			"type":"VEC3"
		},
		{
			"bufferView":126,
			"componentType":5126,
			"count":1332,
			"type":"VEC2"
		},
		{
			"bufferView":127,
			"componentType":5126,
			"count":1332,
			"type":"VEC2"
		},
		{
			"bufferView":128,
			"componentType":5121,
			"count":1332,
			"normalized":true,
			"type":"VEC4"
		},
		{
			"bufferView":129,
			"componentType":5123,
			"count":1332,
			"normalized":true,
			"type":"VEC4"
		},
		{
			"bufferView":130,
			"componentType":5121,
			"count":1332,
			"type":"VEC4"
		},
		{
			"bufferView":131,
			"componentType":5126,
			"count":1332,
			"type":"VEC4"
		},
		{
			"bufferView":132,
			"componentType":5123,
			"count":5640,
			"type":"SCALAR"
		},
		{
			"bufferView":133,
			"componentType":5126,
			"count":2949,
			"max":[
				0.25631824135780334,
				1.6306849718093872,
				0.1668487787246704
			],
			"min":[
				-0.25631824135780334,
				0.9322369694709778,
				-0.18247835338115692
			],
			"type":"VEC3"
		},
		{
			"bufferView":134,
			"componentType":5126,
			"count":2949,
			"type":"VEC3"
		},
		{
			"bufferView":135,
			"componentType":5126,
			"count":2949,
			"type":"VEC2"
		},
		{
			"bufferView":136,
			"componentType":5126,
			"count":2949,
			"type":"VEC2"
		},
		{
			"bufferView":137,
			"componentType":5121,
			"count":2949,
			"normalized":true,
			"type":"VEC4"
		},
		{
			"bufferView":138,
			"componentType":5123,
			"count":2949,
			"normalized":true,
			"type":"VEC4"
		},
		{
			"bufferView":139,
			"componentType":5121,
			"count":2949,
			"type":"VEC4"
		},
		{
			"bufferView":140,
			"componentType":5126,
			"count":2949,
			"type":"VEC4"
		},
		{
			"bufferView":141,
			"componentType":5123,
			"count":9966,
			"type":"SCALAR"
		},
		{
			"bufferView":142,
			"componentType":5126,
			"count":705,
			"max":[
				0.1516081690788269,
				1.1693593263626099,
				0.10775212198495865
			],
			"min":[
				-0.1516081690788269,
				1.111299991607666,
				-0.10220251232385635
			],
			"type":"VEC3"
		},
		{
			"bufferView":143,
			"componentType":5126,
			"count":705,
			"type":"VEC3"
		},
		{
			"bufferView":144,
			"componentType":5126,
			"count":705,
			"type":"VEC2"
		},
		{
			"bufferView":145,
			"componentType":5121,
			"count":705,
			"normalized":true,
			"type":"VEC4"
		},
		{
			"bufferView":146,
			"componentType":5123,
			"count":705,
			"normalized":true,
			"type":"VEC4"
		},
		{
			"bufferView":147,
			"componentType":5121,
			"count":705,
			"type":"VEC4"
		},
		{
			"bufferView":148,
			"componentType":5126,
			"count":705,
			"type":"VEC4"
		},
		{
			"bufferView":149,
			"componentType":5123,
			"count":2112,
			"type":"SCALAR"
		},
		{
			"bufferView":150,
			"componentType":5126,
			"count":1211,
			"max":[
				0.10450638830661774,
				1.1785533428192139,
				0.12914282083511353
			],
			"min":[
				-0.10450638830661774,
				1.084701418876648,
				0.08792658895254135
			],
			"type":"VEC3"
		},
		{
			"bufferView":151,
			"componentType":5126,
			"count":1211,
			"type":"VEC3"
		},
		{
			"bufferView":152,
			"componentType":5126,
			"count":1211,
			"type":"VEC2"
		},
		{
			"bufferView":153,
			"componentType":5121,
			"count":1211,
			"normalized":true,
			"type":"VEC4"
		},
		{
			"bufferView":154,
			"componentType":5123,
			"count":1211,
			"normalized":true,
			"type":"VEC4"
		},
		{
			"bufferView":155,
			"componentType":5121,
			"count":1211,
			"type":"VEC4"
		},
		{
			"bufferView":156,
			"componentType":5126,
			"count":1211,
			"type":"VEC4"
		},
		{
			"bufferView":157,
			"componentType":5123,
			"count":3684,
			"type":"SCALAR"
		},
		{
			"bufferView":158,
			"componentType":5126,
			"count":1510,
			"max":[
				0.15850354731082916,
				0.4424784183502197,
				0.13075459003448486
			],
			"min":[
				-0.15850354731082916,
				-0.008930503390729427,
				-0.13619612157344818
			],
			"type":"VEC3"
		},
		{
			"bufferView":159,
			"componentType":5126,
			"count":1510,
			"type":"VEC3"
		},
		{
			"bufferView":160,
			"componentType":5126,
			"count":1510,
			"type":"VEC2"
		},
		{
			"bufferView":161,
			"componentType":5126,
			"count":1510,
			"type":"VEC2"
		},
		{
			"bufferView":162,
			"componentType":5121,
			"count":1510,
			"normalized":true,
			"type":"VEC4"
		},
		{
			"bufferView":163,
			"componentType":5123,
			"count":1510,
			"normalized":true,
			"type":"VEC4"
		},
		{
			"bufferView":164,
			"componentType":5121,
			"count":1510,
			"type":"VEC4"
		},
		{
			"bufferView":165,
			"componentType":5126,
			"count":1510,
			"type":"VEC4"
		},
		{
			"bufferView":166,
			"componentType":5123,
			"count":7860,
			"type":"SCALAR"
		},
		{
			"bufferView":167,
			"componentType":5126,
			"count":810,
			"max":[
				0.23109591007232666,
				1.072688341140747,
				0.08133256435394287
			],
			"min":[
				-0.23109591007232666,
				0.3370492160320282,
				-0.17584706842899323
			],
			"type":"VEC3"
		},
		{
			"bufferView":168,
			"componentType":5126,
			"count":810,
			"type":"VEC3"
		},
		{
			"bufferView":169,
			"componentType":5126,
			"count":810,
			"type":"VEC2"
		},
		{
			"bufferView":170,
			"componentType":5126,
			"count":810,
			"type":"VEC2"
		},
		{
			"bufferView":171,
			"componentType":5121,
			"count":810,
			"normalized":true,
			"type":"VEC4"
		},
		{
			"bufferView":172,
			"componentType":5123,
			"count":810,
			"normalized":true,
			"type":"VEC4"
		},
		{
			"bufferView":173,
			"componentType":5121,
			"count":810,
			"type":"VEC4"
		},
		{
			"bufferView":174,
			"componentType":5126,
			"count":810,
			"type":"VEC4"
		},
		{
			"bufferView":175,
			"componentType":5123,
			"count":4116,
			"type":"SCALAR"
		}
	],
	"bufferViews":[
		{
			"buffer":0,
			"byteLength":10260,
			"byteOffset":0,
			"target":34962
		},
		{
			"buffer":0,
			"byteLength":10260,
			"byteOffset":10260,
			"target":34962
		},
		{
			"buffer":0,
			"byteLength":6840,
			"byteOffset":20520,
			"target":34962
		},
		{
			"buffer":0,
			"byteLength":3420,
			"byteOffset":27360,
			"target":34962
		},
		{
			"buffer":0,
			"byteLength":6840,
			"byteOffset":30780,
			"target":34962
		},
		{
			"buffer":0,
			"byteLength":3420,
			"byteOffset":37620,
			"target":34962
		},
		{
			"buffer":0,
			"byteLength":13680,
			"byteOffset":41040,
			"target":34962
		},
		{
			"buffer":0,
			"byteLength":5328,
			"byteOffset":54720,
			"target":34963
		},
		{
			"buffer":0,
			"byteLength":4160,
			"byteOffset":60048
		},
		{
			"buffer":0,
			"byteLength":6384,
			"byteOffset":64208,
			"target":34962
		},
		{
			"buffer":0,
			"byteLength":6384,
			"byteOffset":70592,
			"target":34962
		},
		{
			"buffer":0,
			"byteLength":4256,
			"byteOffset":76976,
			"target":34962
		},
		{
			"buffer":0,
			"byteLength":2128,
			"byteOffset":81232,
			"target":34962
		},
		{
			"buffer":0,
			"byteLength":8512,
			"byteOffset":83360,
			"target":34962
		},
		{
			"buffer":0,
			"byteLength":3576,
			"byteOffset":91872,
			"target":34963
		},
		{
			"buffer":0,
			"byteLength":6612,
			"byteOffset":95448,
			"target":34962
		},
		{
			"buffer":0,
			"byteLength":6612,
			"byteOffset":102060,
			"target":34962
		},
		{
			"buffer":0,
			"byteLength":4408,
			"byteOffset":108672,
			"target":34962
		},
		{
			"buffer":0,
			"byteLength":2204,
			"byteOffset":113080,
			"target":34962
		},
		{
			"buffer":0,
			"byteLength":8816,
			"byteOffset":115284,
			"target":34962
		},
		{
			"buffer":0,
			"byteLength":5568,
			"byteOffset":124100,
			"target":34963
		},
		{
			"buffer":0,
			"byteLength":40248,
			"byteOffset":129668,
			"target":34962
		},
		{
			"buffer":0,
			"byteLength":40248,
			"byteOffset":169916,
			"target":34962
		},
		{
			"buffer":0,
			"byteLength":26832,
			"byteOffset":210164,
			"target":34962
		},
		{
			"buffer":0,
			"byteLength":13416,
			"byteOffset":236996,
			"target":34962
		},
		{
			"buffer":0,
			"byteLength":26832,
			"byteOffset":250412,
			"target":34962
		},
		{
			"buffer":0,
			"byteLength":13416,
			"byteOffset":277244,
			"target":34962
		},
		{
			"buffer":0,
			"byteLength":53664,
			"byteOffset":290660,
			"target":34962
		},
		{
			"buffer":0,
			"byteLength":32400,
			"byteOffset":344324,
			"target":34963
		},
		{
			"buffer":0,
			"byteLength":7704,
			"byteOffset":376724,
			"target":34962
		},
		{
			"buffer":0,
			"byteLength":7704,
			"byteOffset":384428,
			"target":34962
		},
		{
			"buffer":0,
			"byteLength":5136,
			"byteOffset":392132,
			"target":34962
		},
		{
			"buffer":0,
			"byteLength":2568,
			"byteOffset":397268,
			"target":34962
		},
		{
			"buffer":0,
			"byteLength":5136,
			"byteOffset":399836,
			"target":34962
		},
		{
			"buffer":0,
			"byteLength":2568,
			"byteOffset":404972,
			"target":34962
		},
		{
			"buffer":0,
			"byteLength":10272,
			"byteOffset":407540,
			"target":34962
		},
		{
			"buffer":0,
			"byteLength":4056,
			"byteOffset":417812,
			"target":34963
		},
		{
			"buffer":0,
			"byteLength":54372,
			"byteOffset":421868,
			"target":34962
		},
		{
			"buffer":0,
			"byteLength":54372,
			"byteOffset":476240,
			"target":34962
		},
		{
			"buffer":0,
			"byteLength":36248,
			"byteOffset":530612,
			"target":34962
		},
		{
			"buffer":0,
			"byteLength":18124,
			"byteOffset":566860,
			"target":34962
		},
		{
			"buffer":0,
			"byteLength":36248,
			"byteOffset":584984,
			"target":34962
		},
		{
			"buffer":0,
			"byteLength":18124,
			"byteOffset":621232,
			"target":34962
		},
		{
			"buffer":0,
			"byteLength":72496,
			"byteOffset":639356,
			"target":34962
		},
		{
			"buffer":0,
			"byteLength":27624,
			"byteOffset":711852,
			"target":34963
		},
		{
			"buffer":0,
			"byteLength":16176,
			"byteOffset":739476,
			"target":34962
		},
		{
			"buffer":0,
			"byteLength":16176,
			"byteOffset":755652,
			"target":34962
		},
		{
			"buffer":0,
			"byteLength":10784,
			"byteOffset":771828,
			"target":34962
		},
		{
			"buffer":0,
			"byteLength":5392,
			"byteOffset":782612,
			"target":34962
		},
		{
			"buffer":0,
			"byteLength":21568,
			"byteOffset":788004,
			"target":34962
		},
		{
			"buffer":0,
			"byteLength":10416,
			"byteOffset":809572,
			"target":34963
		},
		{
			"buffer":0,
			"byteLength":46080,
			"byteOffset":819988,
			"target":34962
		},
		{
			"buffer":0,
			"byteLength":46080,
			"byteOffset":866068,
			"target":34962
		},
		{
			"buffer":0,
			"byteLength":30720,
			"byteOffset":912148,
			"target":34962
		},
		{
			"buffer":0,
			"byteLength":15360,
			"byteOffset":942868,
			"target":34962
		},
		{
			"buffer":0,
			"byteLength":30720,
			"byteOffset":958228,
			"target":34962
		},
		{
			"buffer":0,
			"byteLength":15360,
			"byteOffset":988948,
			"target":34962
		},
		{
			"buffer":0,
			"byteLength":61440,
			"byteOffset":1004308,
			"target":34962
		},
		{
			"buffer":0,
			"byteLength":22638,
			"byteOffset":1065748,
			"target":34963
		},
		{
			"buffer":0,
			"byteLength":47760,
			"byteOffset":1088388,
			"target":34962
		},
		{
			"buffer":0,
			"byteLength":47760,
			"byteOffset":1136148,
			"target":34962
		},
		{
			"buffer":0,
			"byteLength":31840,
			"byteOffset":1183908,
			"target":34962
		},
		{
			"buffer":0,
			"byteLength":15920,
			"byteOffset":1215748,
			"target":34962
		},
		{
			"buffer":0,
			"byteLength":63680,
			"byteOffset":1231668,
			"target":34962
		},
		{
			"buffer":0,
			"byteLength":23808,
			"byteOffset":1295348,
			"target":34963
		},
		{
			"buffer":0,
			"byteLength":10512,
			"byteOffset":1319156,
			"target":34962
		},
		{
			"buffer":0,
			"byteLength":10512,
			"byteOffset":1329668,
			"target":34962
		},
		{
			"buffer":0,
			"byteLength":7008,
			"byteOffset":1340180,
			"target":34962
		},
		{
			"buffer":0,
			"byteLength":3504,
			"byteOffset":1347188,
			"target":34962
		},
		{
			"buffer":0,
			"byteLength":7008,
			"byteOffset":1350692,
			"target":34962
		},
		{
			"buffer":0,
			"byteLength":3504,
			"byteOffset":1357700,
			"target":34962
		},
		{
			"buffer":0,
			"byteLength":14016,
			"byteOffset":1361204,
			"target":34962
		},
		{
			"buffer":0,
			"byteLength":9168,
			"byteOffset":1375220,
			"target":34963
		},
		{
			"buffer":0,
			"byteLength":9816,
			"byteOffset":1384388,
			"target":34962
		},
		{
			"buffer":0,
			"byteLength":9816,
			"byteOffset":1394204,
			"target":34962
		},
		{
			"buffer":0,
			"byteLength":6544,
			"byteOffset":1404020,
			"target":34962
		},
		{
			"buffer":0,
			"byteLength":6544,
			"byteOffset":1410564,
			"target":34962
		},
		{
			"buffer":0,
			"byteLength":3272,
			"byteOffset":1417108,
			"target":34962
		},
		{
			"buffer":0,
			"byteLength":6544,
			"byteOffset":1420380,
			"target":34962
		},
		{
			"buffer":0,
			"byteLength":3272,
			"byteOffset":1426924,
			"target":34962
		},
		{
			"buffer":0,
			"byteLength":13088,
			"byteOffset":1430196,
			"target":34962
		},
		{
			"buffer":0,
			"byteLength":8448,
			"byteOffset":1443284,
			"target":34963
		},
		{
			"buffer":0,
			"byteLength":29964,
			"byteOffset":1451732,
			"target":34962
		},
		{
			"buffer":0,
			"byteLength":29964,
			"byteOffset":1481696,
			"target":34962
		},
		{
			"buffer":0,
			"byteLength":19976,
			"byteOffset":1511660,
			"target":34962
		},
		{
			"buffer":0,
			"byteLength":19976,
			"byteOffset":1531636,
			"target":34962
		},
		{
			"buffer":0,
			"byteLength":9988,
			"byteOffset":1551612,
			"target":34962
		},
		{
			"buffer":0,
			"byteLength":19976,
			"byteOffset":1561600,
			"target":34962
		},
		{
			"buffer":0,
			"byteLength":9988,
			"byteOffset":1581576,
			"target":34962
		},
		{
			"buffer":0,
			"byteLength":39952,
			"byteOffset":1591564,
			"target":34962
		},
		{
			"buffer":0,
			"byteLength":23580,
			"byteOffset":1631516,
			"target":34963
		},
		{
			"buffer":0,
			"byteLength":36072,
			"byteOffset":1655096,
			"target":34962
		},
		{
			"buffer":0,
			"byteLength":36072,
			"byteOffset":1691168,
			"target":34962
		},
		{
			"buffer":0,
			"byteLength":24048,
			"byteOffset":1727240,
			"target":34962
		},
		{
			"buffer":0,
			"byteLength":12024,
			"byteOffset":1751288,
			"target":34962
		},
		{
			"buffer":0,
			"byteLength":24048,
			"byteOffset":1763312,
			"target":34962
		},
		{
			"buffer":0,
			"byteLength":12024,
			"byteOffset":1787360,
			"target":34962
		},
		{
			"buffer":0,
			"byteLength":48096,
			"byteOffset":1799384,
			"target":34962
		},
		{
			"buffer":0,
			"byteLength":23136,
			"byteOffset":1847480,
			"target":34963
		},
		{
			"buffer":0,
			"byteLength":22536,
			"byteOffset":1870616,
			"target":34962
		},
		{
			"buffer":0,
			"byteLength":22536,
			"byteOffset":1893152,
			"target":34962
		},
		{
			"buffer":0,
			"byteLength":15024,
			"byteOffset":1915688,
			"target":34962
		},
		{
			"buffer":0,
			"byteLength":7512,
			"byteOffset":1930712,
			"target":34962
		},
		{
			"buffer":0,
			"byteLength":15024,
			"byteOffset":1938224,
			"target":34962
		},
		{
			"buffer":0,
			"byteLength":7512,
			"byteOffset":1953248,
			"target":34962
		},
		{
			"buffer":0,
			"byteLength":30048,
			"byteOffset":1960760,
			"target":34962
		},
		{
			"buffer":0,
			"byteLength":15528,
			"byteOffset":1990808,
			"target":34963
		},
		{
			"buffer":0,
			"byteLength":7872,
			"byteOffset":2006336,
			"target":34962
		},
		{
			"buffer":0,
			"byteLength":7872,
			"byteOffset":2014208,
			"target":34962
		},
		{
			"buffer":0,
			"byteLength":5248,
			"byteOffset":2022080,
			"target":34962
		},
		{
			"buffer":0,
			"byteLength":2624,
			"byteOffset":2027328,
			"target":34962
		},
		{
			"buffer":0,
			"byteLength":5248,
			"byteOffset":2029952,
			"target":34962
		},
		{
			"buffer":0,
			"byteLength":2624,
			"byteOffset":2035200,
			"target":34962
		},
		{
			"buffer":0,
			"byteLength":10496,
			"byteOffset":2037824,
			"target":34962
		},
		{
			"buffer":0,
			"byteLength":6672,
			"byteOffset":2048320,
			"target":34963
		},
		{
			"buffer":0,
			"byteLength":24816,
			"byteOffset":2054992,
			"target":34962
		},
		{
			"buffer":0,
			"byteLength":24816,
			"byteOffset":2079808,
			"target":34962
		},
		{
			"buffer":0,
			"byteLength":16544,
			"byteOffset":2104624,
			"target":34962
		},
		{
			"buffer":0,
			"byteLength":16544,
			"byteOffset":2121168,
			"target":34962
		},
		{
			"buffer":0,
			"byteLength":8272,
			"byteOffset":2137712,
			"target":34962
		},
		{
			"buffer":0,
			"byteLength":16544,
			"byteOffset":2145984,
			"target":34962
		},
		{
			"buffer":0,
			"byteLength":8272,
			"byteOffset":2162528,
			"target":34962
		},
		{
			"buffer":0,
			"byteLength":33088,
			"byteOffset":2170800,
			"target":34962
		},
		{
			"buffer":0,
			"byteLength":19824,
			"byteOffset":2203888,
			"target":34963
		},
		{
			"buffer":0,
			"byteLength":15984,
			"byteOffset":2223712,
			"target":34962
		},
		{
			"buffer":0,
			"byteLength":15984,
			"byteOffset":2239696,
			"target":34962
		},
		{
			"buffer":0,
			"byteLength":10656,
			"byteOffset":2255680,
			"target":34962
		},
		{
			"buffer":0,
			"byteLength":10656,
			"byteOffset":2266336,
			"target":34962
		},
		{
			"buffer":0,
			"byteLength":5328,
			"byteOffset":2276992,
			"target":34962
		},
		{
			"buffer":0,
			"byteLength":10656,
			"byteOffset":2282320,
			"target":34962
		},
		{
			"buffer":0,
			"byteLength":5328,
			"byteOffset":2292976,
			"target":34962
		},
		{
			"buffer":0,
			"byteLength":21312,
			"byteOffset":2298304,
			"target":34962
		},
		{
			"buffer":0,
			"byteLength":11280,
			"byteOffset":2319616,
			"target":34963
		},
		{
			"buffer":0,
			"byteLength":35388,
			"byteOffset":2330896,
			"target":34962
		},
		{
			"buffer":0,
			"byteLength":35388,
			"byteOffset":2366284,
			"target":34962
		},
		{
			"buffer":0,
			"byteLength":23592,
			"byteOffset":2401672,
			"target":34962
		},
		{
			"buffer":0,
			"byteLength":23592,
			"byteOffset":2425264,
			"target":34962
		},
		{
			"buffer":0,
			"byteLength":11796,
			"byteOffset":2448856,
			"target":34962
		},
		{
			"buffer":0,
			"byteLength":23592,
			"byteOffset":2460652,
			"target":34962
		},
		{
			"buffer":0,
			"byteLength":11796,
			"byteOffset":2484244,
			"target":34962
		},
		{
			"buffer":0,
			"byteLength":47184,
			"byteOffset":2496040,
			"target":34962
		},
		{
			"buffer":0,
			"byteLength":19932,
			"byteOffset":2543224,
			"target":34963
		},
		{
			"buffer":0,
			"byteLength":8460,
			"byteOffset":2563156,
			"target":34962
		},
		{
			"buffer":0,
			"byteLength":8460,
			"byteOffset":2571616,
			"target":34962
		},
		{
			"buffer":0,
			"byteLength":5640,
			"byteOffset":2580076,
			"target":34962
		},
		{
			"buffer":0,
			"byteLength":2820,
			"byteOffset":2585716,
			"target":34962
		},
		{
			"buffer":0,
			"byteLength":5640,
			"byteOffset":2588536,
			"target":34962
		},
		{
			"buffer":0,
			"byteLength":2820,
			"byteOffset":2594176,
			"target":34962
		},
		{
			"buffer":0,
			"byteLength":11280,
			"byteOffset":2596996,
			"target":34962
		},
		{
			"buffer":0,
			"byteLength":4224,
			"byteOffset":2608276,
			"target":34963
		},
		{
			"buffer":0,
			"byteLength":14532,
			"byteOffset":2612500,
			"target":34962
		},
		{
			"buffer":0,
			"byteLength":14532,
			"byteOffset":2627032,
			"target":34962
		},
		{
			"buffer":0,
			"byteLength":9688,
			"byteOffset":2641564,
			"target":34962
		},
		{
			"buffer":0,
			"byteLength":4844,
			"byteOffset":2651252,
			"target":34962
		},
		{
			"buffer":0,
			"byteLength":9688,
			"byteOffset":2656096,
			"target":34962
		},
		{
			"buffer":0,
			"byteLength":4844,
			"byteOffset":2665784,
			"target":34962
		},
		{
			"buffer":0,
			"byteLength":19376,
			"byteOffset":2670628,
			"target":34962
		},
		{
			"buffer":0,
			"byteLength":7368,
			"byteOffset":2690004,
			"target":34963
		},
		{
			"buffer":0,
			"byteLength":18120,
			"byteOffset":2697372,
			"target":34962
		},
		{
			"buffer":0,
			"byteLength":18120,
			"byteOffset":2715492,
			"target":34962
		},
		{
			"buffer":0,
			"byteLength":12080,
			"byteOffset":2733612,
			"target":34962
		},
		{
			"buffer":0,
			"byteLength":12080,
			"byteOffset":2745692,
			"target":34962
		},
		{
			"buffer":0,
			"byteLength":6040,
			"byteOffset":2757772,
			"target":34962
		},
		{
			"buffer":0,
			"byteLength":12080,
			"byteOffset":2763812,
			"target":34962
		},
		{
			"buffer":0,
			"byteLength":6040,
			"byteOffset":2775892,
			"target":34962
		},
		{
			"buffer":0,
			"byteLength":24160,
			"byteOffset":2781932,
			"target":34962
		},
		{
			"buffer":0,
			"byteLength":15720,
			"byteOffset":2806092,
			"target":34963
		},
		{
			"buffer":0,
			"byteLength":9720,
			"byteOffset":2821812,
			"target":34962
		},
		{
			"buffer":0,
			"byteLength":9720,
			"byteOffset":2831532,
			"target":34962
		},
		{
			"buffer":0,
			"byteLength":6480,
			"byteOffset":2841252,
			"target":34962
		},
		{
			"buffer":0,
			"byteLength":6480,
			"byteOffset":2847732,
			"target":34962
		},
		{
			"buffer":0,
			"byteLength":3240,
			"byteOffset":2854212,
			"target":34962
		},
		{
			"buffer":0,
			"byteLength":6480,
			"byteOffset":2857452,
			"target":34962
		},
		{
			"buffer":0,
			"byteLength":3240,
			"byteOffset":2863932,
			"target":34962
		},
		{
			"buffer":0,
			"byteLength":12960,
			"byteOffset":2867172,
			"target":34962
		},
		{
			"buffer":0,
			"byteLength":8232,
			"byteOffset":2880132,
			"target":34963
		}
	],
	"samplers":[
		{
			"magFilter":9729,
			"minFilter":9987
		}
	],
	"buffers":[
		{
			"byteLength":2888364,
			"uri":"Male_Wizard.bin"
		}
	]
}
